<svg width="159" height="176" viewBox="0 0 159 176" fill="none" xmlns="http://www.w3.org/2000/svg">
<path d="M44.6666 53.3333L44.6666 44.6667C44.6666 25.5208 60.1874 9.99999 79.3333 9.99999V9.99999C98.4792 9.99999 114 25.5208 114 44.6667L114 53.3333" stroke="#00448e" stroke-width="20" stroke-linecap="round"/>
<path d="M105.333 105.333V88" stroke="#00448e" stroke-width="20" stroke-linecap="round"/>
<path d="M53.3334 105.333V88" stroke="#00448e" stroke-width="20" stroke-linecap="round"/>
<path d="M10 93.3333C10 74.4771 10 65.049 15.8579 59.1912C21.7157 53.3333 31.1438 53.3333 50 53.3333H108.667C127.523 53.3333 136.951 53.3333 142.809 59.1912C148.667 65.049 148.667 74.4771 148.667 93.3333V126C148.667 144.856 148.667 154.284 142.809 160.142C136.951 166 127.523 166 108.667 166H50C31.1438 166 21.7157 166 15.8579 160.142C10 154.284 10 144.856 10 126V93.3333Z" stroke="#00448e" stroke-width="20"/>
</svg>
