<svg width="142" height="176" viewBox="0 0 142 176" fill="none" xmlns="http://www.w3.org/2000/svg">
<path d="M70.6667 166V96.6667M70.6667 166L10.8375 123.265C10.427 122.972 10.2217 122.825 10.1108 122.61C10 122.394 10 122.142 10 121.637V53.3333M70.6667 166L130.496 123.265C130.906 122.972 131.112 122.825 131.223 122.61C131.333 122.394 131.333 122.142 131.333 121.637V53.3333M70.6667 96.6667L10 53.3333M70.6667 96.6667L131.333 53.3333M10 53.3333L69.5042 10.8303C70.0655 10.4294 70.3462 10.2289 70.6667 10.2289C70.9871 10.2289 71.2678 10.4294 71.8291 10.8303L131.333 53.3333" stroke="#00448e" stroke-width="20" stroke-linejoin="round"/>
</svg>
