<svg width="162" height="156" viewBox="0 0 162 156" fill="none" xmlns="http://www.w3.org/2000/svg">
<path d="M63.2171 27.4698C70.563 9.15661 74.2359 0 80.5519 0C86.868 0 90.5409 9.15662 97.8868 27.4699L98.2289 28.3226C102.379 38.6687 104.454 43.8417 108.683 46.986C112.912 50.1302 118.463 50.6274 129.566 51.6217L131.574 51.8015C149.745 53.4289 158.831 54.2426 160.775 60.0231C162.719 65.8036 155.972 71.9424 142.477 84.2199L137.973 88.3175C131.142 94.5326 127.726 97.6401 126.134 101.713C125.837 102.473 125.59 103.251 125.395 104.043C124.348 108.289 125.349 112.797 127.349 121.813L127.972 124.62C131.648 141.19 133.486 149.475 130.277 153.049C129.077 154.384 127.519 155.345 125.787 155.818C121.153 157.082 114.574 151.721 101.417 141C92.7766 133.959 88.4567 130.439 83.4968 129.647C81.5459 129.336 79.5579 129.336 77.607 129.647C72.6472 130.439 68.3272 133.959 59.6873 141C46.5295 151.721 39.9506 157.082 35.3167 155.818C33.5851 155.345 32.0264 154.384 30.8271 153.049C27.6176 149.475 29.4558 141.19 33.1322 124.62L33.7549 121.813C35.7553 112.797 36.7555 108.289 35.7091 104.043C35.5139 103.251 35.267 102.473 34.97 101.713C33.378 97.6401 29.9623 94.5326 23.131 88.3175L18.6271 84.2199C5.13223 71.9424 -1.61521 65.8036 0.328917 60.0231C2.27304 54.2426 11.3587 53.4289 29.5302 51.8015L31.5374 51.6217C42.6404 50.6274 48.1918 50.1302 52.4209 46.986C56.6499 43.8417 58.725 38.6687 62.875 28.3226L63.2171 27.4698Z" fill="#EDF2FF"/>
</svg>
