<svg width="164" height="158" viewBox="0 0 164 158" fill="none" xmlns="http://www.w3.org/2000/svg">
<path d="M64.0068 27.8534C70.8115 10.8894 74.2139 2.4074 79.7415 1.23183C81.195 0.922723 82.6972 0.922723 84.1506 1.23183C89.6783 2.4074 93.0806 10.8894 99.8853 27.8534C103.755 37.5005 105.69 42.3241 109.31 45.6049C110.326 46.5251 111.428 47.3446 112.602 48.0521C116.786 50.5741 122.01 51.0419 132.457 51.9776C150.143 53.5615 158.985 54.3534 161.686 59.3953C162.245 60.4395 162.625 61.5701 162.811 62.7401C163.706 68.3891 157.205 74.3034 144.204 86.132L140.593 89.4167C134.515 94.9468 131.476 97.7118 129.718 101.163C128.663 103.233 127.956 105.462 127.625 107.761C127.073 111.594 127.963 115.606 129.743 123.628L130.379 126.494C133.571 140.881 135.167 148.075 133.174 151.611C131.385 154.787 128.088 156.82 124.447 156.994C120.393 157.188 114.681 152.533 103.256 143.224C95.7295 137.091 91.9661 134.024 87.7883 132.826C83.9704 131.732 79.9217 131.732 76.1038 132.826C71.926 134.024 68.1626 137.091 60.6359 143.224C49.2115 152.533 43.4994 157.188 39.4454 156.994C35.804 156.82 32.5075 154.787 30.7179 151.611C28.7255 148.075 30.3216 140.881 33.5136 126.494L34.1496 123.628C35.9296 115.606 36.8195 111.594 36.2672 107.761C35.9359 105.462 35.2289 103.233 34.1744 101.163C32.4165 97.7118 29.3773 94.9468 23.2989 89.4167L19.6884 86.132C6.68696 74.3034 0.186227 68.3891 1.08147 62.7401C1.26689 61.5701 1.64713 60.4395 2.2064 59.3953C4.90675 54.3534 13.7495 53.5615 31.435 51.9776C41.8823 51.0419 47.1059 50.5741 51.2904 48.0521C52.4641 47.3446 53.5664 46.5251 54.5819 45.6049C58.2023 42.3241 60.1372 37.5005 64.0068 27.8534Z" fill="#FFDB00" stroke="#FFDB00" stroke-width="2"/>
</svg>
