<svg width="176" height="176" viewBox="0 0 176 176" fill="none" xmlns="http://www.w3.org/2000/svg">
<path d="M109.667 166V115C109.667 114.448 109.219 114 108.667 114H67.3334C66.7811 114 66.3334 114.448 66.3334 115V166" stroke="#00448e" stroke-width="20" stroke-linecap="round" stroke-linejoin="round"/>
<path d="M27.3334 79.3333V162C27.3334 163.886 27.3334 164.828 27.9192 165.414C28.5049 166 29.4478 166 31.3334 166H144.667C146.552 166 147.495 166 148.081 165.414C148.667 164.828 148.667 163.886 148.667 162V79.3333" stroke="#00448e" stroke-width="20"/>
<path d="M26.9546 11.5149C27.1365 10.7874 27.2274 10.4236 27.4987 10.2118C27.77 10 28.1449 10 28.8949 10H147.105C147.855 10 148.23 10 148.501 10.2118C148.773 10.4236 148.864 10.7874 149.045 11.5149L165.379 76.8483C165.665 77.9922 165.808 78.5642 165.507 78.9487C165.207 79.3333 164.618 79.3333 163.438 79.3333H134.722C133.104 79.3333 132.294 79.3333 131.735 78.8594C131.175 78.3854 131.042 77.5873 130.776 75.9909L127.197 54.517C127.122 54.0667 127.085 53.8416 127 53.8416C126.915 53.8416 126.878 54.0667 126.803 54.517L123.224 75.9909C122.958 77.5873 122.825 78.3854 122.265 78.8594C121.706 79.3333 120.897 79.3333 119.278 79.3333H95.7218C94.1035 79.3333 93.2943 79.3333 92.7348 78.8594C92.1753 78.3854 92.0423 77.5873 91.7763 75.9909L88.1973 54.517C88.1222 54.0667 88.0847 53.8416 88 53.8416C87.9153 53.8416 87.8778 54.0667 87.8027 54.517L84.2237 75.9909C83.9577 77.5873 83.8247 78.3854 83.2652 78.8594C82.7057 79.3333 81.8965 79.3333 80.2782 79.3333H56.7218C55.1035 79.3333 54.2943 79.3333 53.7348 78.8594C53.1753 78.3854 53.0423 77.5873 52.7763 75.9909L49.1973 54.517C49.1222 54.0667 49.0847 53.8416 49 53.8416C48.9153 53.8416 48.8778 54.0667 48.8027 54.517L45.2237 75.9909C44.9577 77.5873 44.8247 78.3854 44.2652 78.8594C43.7057 79.3333 42.8965 79.3333 41.2782 79.3333H12.5616C11.3824 79.3333 10.7928 79.3333 10.4926 78.9487C10.1923 78.5642 10.3353 77.9922 10.6213 76.8483L26.9546 11.5149Z" stroke="#00448e" stroke-width="20"/>
</svg>
