<?xml version="1.0" standalone="no"?>
<!DOCTYPE svg PUBLIC "-//W3C//DTD SVG 20010904//EN"
 "http://www.w3.org/TR/2001/REC-SVG-20010904/DTD/svg10.dtd">
<svg version="1.0" xmlns="http://www.w3.org/2000/svg"
 width="2708.000000pt" height="2708.000000pt" viewBox="0 0 2708.000000 2708.000000"
 preserveAspectRatio="xMidYMid meet">
<metadata>
Created by potrace 1.16, written by Peter Selinger 2001-2019
</metadata>
<g transform="translate(0.000000,2708.000000) scale(0.100000,-0.100000)"
fill="#3369A5" stroke="none">
<path d="M13005 25523 c-91 -8 -360 -45 -499 -69 -1828 -308 -3307 -1153
-4393 -2511 -510 -637 -897 -1340 -1154 -2093 -398 -1164 -484 -2507 -238
-3698 212 -1027 732 -2122 1403 -2957 268 -334 620 -693 946 -966 741 -618
1623 -1082 2575 -1354 641 -183 1086 -239 1895 -239 809 0 1258 57 1895 239
2089 598 3754 2085 4555 4071 644 1595 674 3409 83 5039 -128 354 -336 798
-524 1120 -878 1505 -2305 2622 -4008 3136 -346 105 -754 196 -1001 223 -403
45 -1306 80 -1535 59z m830 -3513 c854 -96 1541 -423 2132 -1017 448 -450 709
-888 894 -1500 92 -306 114 -514 106 -990 -9 -527 -60 -794 -228 -1205 -353
-859 -1059 -1568 -1910 -1918 -794 -327 -1704 -332 -2521 -14 -468 181 -840
425 -1199 783 -343 344 -586 706 -767 1147 -170 414 -220 677 -229 1207 -8
476 14 684 106 990 129 426 291 761 516 1062 331 446 738 804 1200 1058 309
170 677 296 1050 361 121 21 195 30 400 50 62 6 350 -3 450 -14z"/>
<path d="M12860 9904 c-207 -7 -742 -54 -1125 -99 -865 -102 -1634 -255 -2410
-478 -1926 -556 -3564 -1435 -4930 -2645 -182 -162 -706 -688 -858 -863 -571
-656 -986 -1273 -1342 -1994 -210 -426 -306 -656 -374 -899 -54 -192 -66 -295
-65 -566 2 -374 25 -497 144 -746 182 -378 460 -655 841 -838 265 -128 352
-142 824 -133 333 6 381 13 548 84 232 99 398 207 570 373 202 194 281 318
480 755 234 513 326 689 501 955 1276 1938 3836 3268 6811 3539 417 38 585 45
1065 45 480 0 648 -7 1065 -45 2801 -255 5256 -1457 6588 -3224 299 -396 433
-633 724 -1270 199 -437 278 -561 480 -755 172 -166 338 -274 570 -373 167
-71 215 -78 548 -84 472 -9 559 5 824 133 414 199 701 502 884 934 83 196 100
314 101 695 1 313 -4 345 -88 600 -296 889 -941 1951 -1753 2884 -170 196
-608 632 -818 816 -650 567 -1317 1037 -2066 1455 -226 126 -773 398 -1014
504 -1086 480 -2258 827 -3500 1035 -740 124 -1148 161 -2090 190 -353 12
-994 20 -1135 15z"/>
</g>
</svg>
